<?xml version="1.0" encoding="utf-8"?>
<!-- Generator: Adobe Illustrator 24.1.2, SVG Export Plug-In . SVG Version: 6.00 Build 0)  -->
<svg version="1.1" id="레이어_1" xmlns="http://www.w3.org/2000/svg" xmlns:xlink="http://www.w3.org/1999/xlink" x="0px"
	 y="0px" viewBox="0 0 50 50" style="enable-background:new 0 0 50 50;" xml:space="preserve">
<style type="text/css">
	.st0{fill:#F9E178;}
	.st1{fill:#98AF80;}
	.st2{fill:#8ACEC1;}
	.st3{fill:#7F7145;}
	.st4{fill:#F4A089;}
	.st5{fill:#212121;}
</style>
<path class="st0" d="M36.18,16.67c-0.66-0.09-1.33-0.07-2,0.04c-0.5-0.18-1-0.36-1.5-0.57c-1.61-2.84-4.43-4.95-8.23-2.76
	c-0.46,0.26-0.85,0.58-1.19,0.92c-0.74,0.12-1.47,0.19-2.18,0.16c-3.44-2.4-8.55-0.42-10.02,3.34c-0.12,0.25-0.21,0.51-0.3,0.78
	c-0.44,0.6-0.72,1.3-0.82,2.03c-1.08,3.12,1.22,5.79,1.92,8.76c0.91,3.89,2.72,6.76,7.12,7.87c4.29,1.08,7.22-0.71,11.22-1.59
	c3.26-0.72,7.4-1.02,8.63-4.6c0.39-1.15,0.52-2.3,0.44-3.4c0.1-0.32,0.2-0.65,0.27-0.98c0.11-0.48,0.21-1.59,0.05-1.61
	c0.3-0.42,0.67-0.83,0.85-1.32C41.48,20.82,39.46,17.13,36.18,16.67z"/>
<path class="st1" d="M80.57,145.49c-2.34-1.9-5.47-2.62-7.97-4.36c-0.04-0.03-0.08-0.06-0.12-0.08c-0.03-0.03-0.05-0.07-0.08-0.11
	c-1.76-2.01-4.58-3.2-7.3-3.07c-3.03,0.14-4.46,1.81-6.43,3.81c-4.62,4.69-9.12,7.11-5.87,14.13c0.92,1.98,1.24,4.13,3.14,5.63
	c2.5,1.98,5.79,2.29,8.89,2.41c5.49,0.21,12.87,1.47,16.42-3.76C84.19,155.77,84.95,149.05,80.57,145.49z"/>
<path class="st2" d="M-96.44,165.12c-2.04-1.67-4.78-2.31-6.97-3.84c-0.04-0.02-0.07-0.05-0.11-0.07c-0.03-0.03-0.04-0.06-0.07-0.09
	c-1.54-1.77-4-2.82-6.38-2.71c-2.65,0.12-3.9,1.6-5.62,3.36c-0.41,0.42-0.81,0.81-1.21,1.2c-1.93,0.72-4.37,0.75-6.1,1.83
	c-1.97,1.23-3.53,3.22-4.03,5.53c-0.48,2.24,0.2,4.07,1.32,5.95c1.2,2.02,1.56,4.7,3.22,6.34c1.55,1.53,3.62,2.32,5.81,2.55
	c0.11,0.01,0.22,0.04,0.34,0.05c2.74,0.13,6.52,0.61,10.02,0.37c0.13,0.04,0.26,0.09,0.41,0.13c2.26,0.54,4.13-0.33,5.63-1.76
	c1.56-0.96,2.71-2.43,3.18-4.63c0.42-0.38,0.8-0.81,1.14-1.31C-93.27,174.18-92.61,168.25-96.44,165.12z"/>
<path class="st3" d="M0.29,131.07c-2.04-1.67-4.78-2.31-6.97-3.84c-0.04-0.02-0.07-0.05-0.11-0.07c-0.03-0.03-0.04-0.06-0.07-0.09
	c-1.54-1.77-4-2.82-6.38-2.71c-2.65,0.12-3.9,1.6-5.62,3.36c-0.41,0.42-0.81,0.81-1.21,1.2c-1.93,0.72-4.37,0.75-6.1,1.83
	c-1.97,1.23-3.53,3.22-4.03,5.53c-0.48,2.24,0.2,4.07,1.32,5.95c1.2,2.02,1.56,4.7,3.22,6.34c1.55,1.53,3.62,2.32,5.81,2.55
	c0.11,0.01,0.22,0.04,0.34,0.05c2.74,0.13,6.52,0.61,10.02,0.37c0.13,0.04,0.26,0.09,0.41,0.13c2.26,0.54,4.13-0.33,5.63-1.76
	c1.56-0.96,2.71-2.43,3.18-4.63c0.42-0.38,0.8-0.81,1.14-1.31C3.45,140.13,4.11,134.2,0.29,131.07z"/>
<path class="st4" d="M-44,100.55c-1.11-2.63-3.63-3.6-6.2-4.38c-1.22-0.78-2.52-1.47-3.61-2.09c-1.33-3-4.44-5.23-7.97-5.9
	c-3.2-0.61-8.07,0.69-11.4,3.21c-1.58,0.29-3.06,0.95-4.27,2.28c-0.21,0.23-0.4,0.48-0.58,0.73c-1.16,0.94-1.89,2.39-1.89,4.57
	c0,3.55,1.58,6.89,3.94,9.49c0.03,0.07,0.05,0.13,0.07,0.19c0.8,1.83,1.08,3.82,2.74,5.21c2.18,1.83,5.06,2.12,7.76,2.23
	c4.8,0.19,11.25,1.36,14.35-3.48c0.52-0.81,0.96-1.71,1.3-2.66c0.93-0.21,1.78-0.51,2.51-0.9C-44.36,107.48-42.62,103.8-44,100.55z"
	/>
<path class="st5" d="M-67.19,99.31c-0.07-0.33-0.15-0.65-0.22-0.98c-0.03-0.12-0.13-0.24-0.23-0.3c-0.11-0.06-0.27-0.09-0.39-0.05
	s-0.24,0.11-0.3,0.23c-0.06,0.12-0.08,0.25-0.05,0.39c0.07,0.33,0.15,0.65,0.22,0.98c0.03,0.12,0.13,0.24,0.23,0.3
	c0.11,0.06,0.27,0.09,0.39,0.05s0.24-0.11,0.3-0.23C-67.18,99.58-67.16,99.45-67.19,99.31z"/>
<path class="st5" d="M-60.85,103.01c-2.13,0.09-4.26,0.05-6.38-0.15c-0.64-0.06-0.64,0.94,0,1c2.12,0.19,4.26,0.24,6.38,0.15
	C-60.21,103.98-60.21,102.98-60.85,103.01z"/>
<path class="st5" d="M-60.62,99.1c-0.07-0.33-0.15-0.65-0.22-0.98c-0.03-0.12-0.13-0.24-0.23-0.3c-0.11-0.06-0.27-0.09-0.39-0.05
	s-0.24,0.11-0.3,0.23c-0.06,0.12-0.08,0.25-0.05,0.39c0.07,0.33,0.15,0.65,0.22,0.98c0.03,0.12,0.13,0.24,0.23,0.3
	c0.11,0.06,0.27,0.09,0.39,0.05s0.24-0.11,0.3-0.23C-60.61,99.36-60.59,99.23-60.62,99.1z"/>
<path class="st5" d="M21.78,21.15c-0.03-0.06-0.07-0.11-0.13-0.14c-0.05-0.04-0.1-0.07-0.17-0.09c-0.04-0.01-0.09-0.01-0.13-0.02
	c-0.09,0-0.17,0.02-0.25,0.07c-0.03,0.03-0.07,0.05-0.1,0.08c-0.06,0.06-0.1,0.14-0.13,0.22c-0.03,0.17-0.05,0.34-0.08,0.51
	c-0.02,0.07-0.02,0.13-0.01,0.2c0,0.07,0.02,0.13,0.06,0.19c0.03,0.06,0.07,0.11,0.13,0.14c0.05,0.04,0.1,0.07,0.17,0.09
	c0.04,0.01,0.09,0.01,0.13,0.02c0.09,0,0.17-0.02,0.25-0.07c0.03-0.03,0.07-0.05,0.1-0.08c0.06-0.06,0.1-0.14,0.13-0.22
	c0.03-0.17,0.05-0.34,0.08-0.51c0.02-0.07,0.02-0.13,0.01-0.2C21.83,21.27,21.81,21.21,21.78,21.15z"/>
<path class="st5" d="M27.44,25.93c-0.6,1.12-2.14,1.25-3.27,1.14c-1.07-0.11-2.84-0.57-3.07-1.83c-0.11-0.63-1.08-0.36-0.96,0.27
	c0.31,1.69,2.44,2.37,3.9,2.55c1.53,0.18,3.46-0.14,4.26-1.62C28.61,25.86,27.75,25.36,27.44,25.93z"/>
<path class="st5" d="M27.93,21.45c-0.03-0.06-0.07-0.11-0.13-0.14c-0.05-0.04-0.1-0.07-0.17-0.09c-0.04-0.01-0.09-0.01-0.13-0.02
	c-0.09,0-0.17,0.02-0.25,0.07c-0.03,0.03-0.07,0.05-0.1,0.08c-0.06,0.06-0.1,0.14-0.13,0.22c-0.03,0.17-0.05,0.34-0.08,0.51
	c-0.02,0.07-0.02,0.13-0.01,0.2c0,0.07,0.02,0.13,0.06,0.19c0.03,0.06,0.07,0.11,0.13,0.14c0.05,0.04,0.1,0.07,0.17,0.09
	c0.04,0.01,0.09,0.01,0.13,0.02c0.09,0,0.17-0.02,0.25-0.07c0.03-0.03,0.07-0.05,0.1-0.08c0.06-0.06,0.1-0.14,0.13-0.22
	c0.03-0.17,0.05-0.34,0.08-0.51c0.02-0.07,0.02-0.13,0.01-0.2C27.99,21.57,27.97,21.5,27.93,21.45z"/>
<path class="st5" d="M-112.69,170.38c-0.07-0.33-0.15-0.65-0.22-0.98c-0.03-0.12-0.13-0.24-0.23-0.3c-0.11-0.06-0.27-0.09-0.39-0.05
	s-0.24,0.11-0.3,0.23c-0.06,0.12-0.08,0.25-0.05,0.39c0.07,0.33,0.15,0.65,0.22,0.98c0.03,0.12,0.13,0.24,0.23,0.3
	c0.11,0.06,0.27,0.09,0.39,0.05c0.12-0.04,0.24-0.11,0.3-0.23C-112.68,170.64-112.66,170.51-112.69,170.38z"/>
<path class="st5" d="M-111.26,174.97c1.14-0.09,2.29-0.05,3.43,0.15c0.34,0.06,0.34-0.94,0-1c-1.14-0.19-2.28-0.24-3.43-0.15
	C-111.61,174-111.61,175-111.26,174.97z"/>
<path class="st5" d="M-106.13,170.16c-0.07-0.33-0.15-0.65-0.22-0.98c-0.03-0.12-0.13-0.24-0.23-0.3c-0.11-0.06-0.27-0.09-0.39-0.05
	c-0.12,0.04-0.24,0.11-0.3,0.23c-0.06,0.12-0.08,0.25-0.05,0.39c0.07,0.33,0.15,0.65,0.22,0.98c0.03,0.12,0.13,0.24,0.23,0.3
	c0.11,0.06,0.27,0.09,0.39,0.05c0.12-0.04,0.24-0.11,0.3-0.23C-106.11,170.42-106.1,170.3-106.13,170.16z"/>
<path class="st5" d="M64.62,149.68c-0.07-0.33-0.15-0.65-0.22-0.98c-0.03-0.12-0.13-0.24-0.23-0.3c-0.11-0.06-0.27-0.09-0.39-0.05
	c-0.12,0.04-0.24,0.11-0.3,0.23s-0.08,0.25-0.05,0.39c0.07,0.33,0.15,0.65,0.22,0.98c0.03,0.12,0.13,0.24,0.23,0.3
	c0.11,0.06,0.27,0.09,0.39,0.05c0.12-0.04,0.24-0.11,0.3-0.23C64.64,149.94,64.66,149.82,64.62,149.68z"/>
<path class="st5" d="M71.19,149.46c-0.07-0.33-0.15-0.65-0.22-0.98c-0.03-0.12-0.13-0.24-0.23-0.3c-0.11-0.06-0.27-0.09-0.39-0.05
	c-0.12,0.04-0.24,0.11-0.3,0.23c-0.06,0.12-0.08,0.25-0.05,0.39c0.07,0.33,0.15,0.65,0.22,0.98c0.03,0.12,0.13,0.24,0.23,0.3
	c0.11,0.06,0.27,0.09,0.39,0.05c0.12-0.04,0.24-0.11,0.3-0.23C71.2,149.73,71.22,149.6,71.19,149.46z"/>
<path class="st5" d="M70.85,153.03c-1.13-0.3-2.3-0.44-3.47-0.41c-0.59,0.02-1.17,0.08-1.75,0.17c-0.27,0.04-0.53,0.1-0.8,0.16
	c-0.26,0.06-0.53,0.12-0.7,0.34c-0.17,0.21-0.21,0.5,0,0.71c0.17,0.17,0.54,0.21,0.71,0c-0.06,0-0.05-0.01,0.04-0.02
	c0.06-0.01,0.11-0.03,0.17-0.04c0.13-0.03,0.26-0.06,0.4-0.09c0.23-0.05,0.46-0.09,0.69-0.12c0.49-0.07,0.99-0.1,1.49-0.11
	c1.01-0.01,2,0.12,2.97,0.38C71.21,154.16,71.48,153.19,70.85,153.03z"/>
<path class="st5" d="M-16.46,136.22c0.18-0.28,0.36-0.56,0.54-0.85c0.07-0.1,0.08-0.26,0.05-0.37c-0.03-0.12-0.12-0.25-0.24-0.31
	c-0.11-0.06-0.25-0.09-0.37-0.05c-0.13,0.04-0.23,0.12-0.31,0.24c-0.18,0.28-0.36,0.56-0.54,0.85c-0.07,0.1-0.08,0.26-0.05,0.37
	c0.03,0.12,0.12,0.25,0.24,0.31c0.11,0.06,0.25,0.09,0.37,0.05C-16.63,136.41-16.53,136.33-16.46,136.22z"/>
<path class="st5" d="M-9.39,135.16c-0.28-0.18-0.56-0.36-0.85-0.54c-0.1-0.07-0.26-0.08-0.37-0.05c-0.12,0.03-0.25,0.12-0.31,0.24
	c-0.06,0.11-0.09,0.25-0.05,0.37c0.04,0.13,0.12,0.23,0.24,0.31c0.28,0.18,0.56,0.36,0.85,0.54c0.1,0.07,0.26,0.08,0.37,0.05
	c0.12-0.03,0.25-0.12,0.31-0.24c0.06-0.11,0.09-0.25,0.05-0.37C-9.19,135.34-9.27,135.24-9.39,135.16z"/>
<path class="st5" d="M-10.72,139.97c-0.43-0.48-0.84-1.04-1.34-1.44c-0.53-0.42-1.16-0.38-1.8-0.33c-1.21,0.1-2.57,0.5-2.94,1.81
	c-0.18,0.62,0.79,0.88,0.96,0.27c0.26-0.9,1.38-1.03,2.17-1.09c0.44-0.03,0.8-0.08,1.13,0.25c0.39,0.4,0.75,0.83,1.12,1.24
	C-11,141.16-10.29,140.45-10.72,139.97z"/>
</svg>
